<svg width="723" height="628" viewBox="0 0 723 628" fill="none" xmlns="http://www.w3.org/2000/svg">
<path d="M325.068 4.18073C318.911 7.40094 315.974 8.58734 311.85 9.54773C307.783 10.4517 305.467 11.412 302.135 13.4459L297.786 16.1011L296.035 21.8636L294.227 27.5696L294.905 37.3997L295.526 47.1733L293.775 54.1786C292.024 60.9579 291.798 61.4099 287.562 67.3419C283.439 73.1044 282.761 73.7258 277.225 77.3414C271.859 80.8441 270.73 81.2961 264.064 83.0474C255.818 85.1377 248.644 88.5839 240.906 94.1769C236.5 97.3971 236.387 97.5101 235.653 100.843C235.031 103.668 234.467 104.685 232.094 107.114L229.27 109.995L231.812 112.312C233.224 113.611 234.918 114.685 235.54 114.685C237.178 114.685 236.952 115.645 235.201 116.04C234.354 116.266 232.094 117.961 230.117 119.882C226.559 123.272 226.502 123.328 222.605 123.611C218.877 123.837 218.538 123.78 216.505 122.198C214.754 120.786 212.72 120.108 205.321 118.47C197.526 116.718 187.585 115.249 183.292 115.249C182.501 115.249 181.88 115.645 181.71 116.379C181.541 117.001 181.032 117.509 180.524 117.509C179.846 117.509 179.62 116.944 179.62 115.306C179.62 113.385 179.281 112.877 177.078 111.069C174.706 109.092 174.537 108.809 174.537 106.21C174.537 103.951 174.763 103.329 175.723 102.764C176.796 102.199 176.909 101.804 176.627 99.0355C176.457 97.3406 176.175 95.7588 176.005 95.5893C175.779 95.4198 173.576 94.9678 171.035 94.5159C166.629 93.8379 166.346 93.8379 165.217 94.9113C164.257 95.8152 163.24 96.0412 160.359 96.0412C156.801 96.0412 156.688 95.9847 156.066 94.3464L155.445 92.6516H150.361C144.092 92.6516 143.414 93.16 145.108 96.5497C145.899 98.0186 146.294 99.8829 146.294 101.804C146.294 103.442 146.859 107.34 147.537 110.447C148.667 115.758 149.006 116.492 153.694 123.667L158.665 131.237L159.342 144.853C160.02 158.298 160.02 158.524 161.602 160.784L163.127 163.044L161.15 165.191C159.964 166.434 158.834 167.168 158.326 166.999C157.874 166.829 156.066 166.66 154.315 166.66C151.152 166.66 151.096 166.603 149.796 164.343C148.893 162.762 148.215 162.197 147.537 162.366C147.029 162.536 144.148 163.044 141.211 163.552C138.274 164.061 135.675 164.795 135.449 165.134C133.868 167.903 134.037 167.903 127.429 165.812C123.983 164.739 121.159 163.948 121.159 164.004C121.102 164.061 120.029 165.643 118.73 167.564C116.697 170.614 116.188 171.01 113.703 171.575C111.161 172.196 110.879 172.14 109.523 170.84C108.732 170.106 106.868 167.394 105.343 164.795C103.875 162.253 100.994 157.96 98.9606 155.304L95.2891 150.446L89.3017 149.655C82.2412 148.807 74.5028 148.92 73.8815 149.881C73.6556 150.276 73.1472 152.028 72.8083 153.779L72.1305 157.056H65.7477C60.9466 157.056 59.3085 157.225 59.3085 157.734C59.252 159.711 58.4613 159.88 54.7898 158.637C51.4007 157.508 50.8359 157.508 45.5263 158.129C38.1269 158.976 29.2024 161.01 22.9891 163.27L18.0184 165.078L15.985 169.145L14.0081 173.213L16.3239 177.846L18.6963 182.535L22.7631 182.196C25.0225 182.026 27.9597 181.348 29.3718 180.727L31.9136 179.597L34.6249 180.727C36.6583 181.574 37.3361 182.196 37.1667 182.874C37.0537 183.552 36.4888 183.834 35.5851 183.778C32.3655 183.495 24.2882 183.439 24.0623 183.665C23.9493 183.778 23.6669 185.303 23.4409 187.054L23.0456 190.162L25.6438 190.783C27.4513 191.178 29.1459 191.178 30.8969 190.839C34.1165 190.105 38.1269 191.065 37.6185 192.421C37.4491 192.93 37.2796 193.777 37.2796 194.399C37.2796 195.811 34.9073 195.867 32.8738 194.455C31.6312 193.664 30.332 193.551 25.6438 193.664C20.3908 193.834 19.7695 193.947 18.1314 195.359C16.2109 196.941 14.7988 201.065 15.872 201.743C16.2109 201.912 18.9787 202.76 22.0853 203.664L27.6773 205.189L27.7338 208.692C27.7338 211.686 28.0727 212.646 30.1626 216.093L32.5349 220.047L36.1499 220.443L39.8214 220.895L42.3632 218.07C44.5661 215.584 45.1874 215.245 47.0514 215.245C48.633 215.245 49.5367 215.641 50.7229 216.884C51.9091 218.126 53.6036 218.861 58.0094 220.047C63.1495 221.46 64.0532 221.912 66.1996 224.115L68.572 226.544H66.3691C62.9235 226.544 62.5846 226.996 63.093 230.555L63.5449 233.606L66.4256 234.114C69.2498 234.566 69.4192 234.51 72.8648 232.194C74.7852 230.894 77.1576 229.595 78.1178 229.312C79.6994 228.86 80.0948 229.03 81.7893 230.668C83.6533 232.42 83.7098 232.533 83.4838 236.544L83.3144 240.668L85.9692 241.798C87.4377 242.419 88.7369 242.928 88.9628 242.928C89.1323 242.928 90.036 242.024 90.9963 240.95C93.3686 238.295 95.2891 238.295 97.6614 240.95L99.4124 242.928L105.061 241.967L110.766 241.063L112.178 242.476L113.59 243.888L112.856 249.199L112.065 254.509L113.759 258.012L115.454 261.571L120.029 261.232L124.548 260.836L125.847 264.848C127.09 268.746 127.203 268.859 129.236 269.254C132.964 269.876 133.36 270.102 134.546 272.531L135.675 274.904L133.36 278.632C131.665 281.231 130.818 283.378 130.422 285.92L129.801 289.536L135.224 294.62C140.081 299.14 140.646 299.931 140.646 301.682C140.646 302.756 140.815 305.015 141.041 306.654C141.38 309.591 141.55 309.817 145.504 313.151C148.61 315.749 150.983 317.105 155.445 318.913C164.821 322.698 169.284 325.184 170.3 327.105L171.204 328.8H167.759C165.104 328.8 163.635 328.404 160.98 327.105C159.116 326.144 157.422 325.41 157.196 325.41C156.801 325.41 151.943 332.867 151.943 333.432C151.943 333.545 153.468 334.958 155.275 336.539L158.608 339.477L161.15 337.274C163.579 335.127 163.861 335.014 167.589 335.014H171.486L174.367 338.008C177.191 340.89 177.248 341.003 177.474 344.788C177.643 348.516 177.587 348.629 175.892 349.703L174.085 350.889L172.616 348.347C170.809 345.24 164.821 339.873 164.313 340.833C164.087 341.229 163.522 343.036 163.014 344.844L162.167 348.177L166.177 352.302L170.131 356.426L169.792 361.962L169.397 367.499L176.514 371.171C182.84 374.447 184.139 375.408 188.997 380.266L194.419 385.69L194.871 391.283C195.662 399.757 195.605 400.153 194.024 396.367C192.329 392.3 184.534 381.792 181.032 378.854L178.378 376.707L176.231 377.668C174.989 378.233 173.633 379.08 173.238 379.588C172.503 380.436 171.543 392.243 169.623 422.581L169.284 427.948L171.712 430.942C173.012 432.637 173.972 434.106 173.802 434.275C173.633 434.388 172.56 434.275 171.374 433.936C170.018 433.541 169.114 433.541 168.888 433.88C168.719 434.162 168.097 438.174 167.533 442.75C164.595 467.72 163.24 475.743 160.303 485.29C158.721 490.431 156.801 498.058 155.953 502.295L154.428 509.922L150.079 515.006C145.786 520.035 145.73 520.147 141.38 521.447C138.951 522.181 136.918 522.859 136.805 522.916C136.636 523.029 139.347 527.04 141.041 529.3C141.154 529.469 144.826 530.147 149.175 530.825C153.581 531.559 157.252 532.181 157.309 532.294C157.422 532.407 157.648 534.497 157.874 536.983C158.269 541.503 158.269 541.559 156.801 542.237C155.501 542.802 155.332 543.197 155.332 545.74C155.332 548.338 155.445 548.564 156.914 548.847C161.093 549.751 160.811 549.864 161.884 547.152C162.393 545.74 163.014 544.61 163.24 544.61C163.409 544.61 164.031 545.457 164.482 546.531C165.16 547.886 166.855 549.299 170.47 551.615L175.497 554.779H183.066H190.635L195.323 560.993C197.865 564.439 200.294 567.208 200.689 567.208C201.084 567.208 203.57 566.586 206.224 565.795C212.155 564.044 212.381 564.044 218.877 565.908L224.186 567.377L224.356 569.976L224.525 572.575L235.54 573.761C246.328 574.947 253.784 574.947 263.556 573.648L265.928 573.366L264.629 568.281L263.33 563.14L264.573 563.479C265.872 563.818 277.903 565.739 282.478 566.36C284.851 566.643 285.246 566.925 286.771 569.354L288.409 572.01L293.493 571.671C296.26 571.501 298.576 571.332 298.576 571.388C298.633 571.445 299.593 573.366 300.779 575.682C301.965 577.998 302.982 580.032 303.039 580.088C303.152 580.201 304.168 579.298 305.298 578.055L307.331 575.795L312.584 577.546L317.894 579.298L318.289 582.179L318.628 585.06L323.599 587.546C328.57 589.975 328.57 589.975 329.53 593.026L330.49 596.076L335.404 595.907L340.262 595.737L340.77 593.986C341.222 592.517 341.674 592.122 343.368 591.839C347.944 591.105 349.751 591.444 353.253 593.704C356.416 595.737 357.094 595.907 361.669 596.189L366.697 596.472L372.684 591.218C378.05 586.585 379.01 585.964 381.552 585.625C383.133 585.399 385.449 584.665 386.748 584.043C388.838 582.97 389.121 582.687 388.838 581.388C388.612 580.597 387.935 577.49 387.2 574.552C386.24 570.654 385.845 566.699 385.619 560.259L385.28 551.389L388.33 544.723C391.211 538.452 391.606 537.887 396.52 533.254C401.095 528.961 402.056 528.339 404.315 528C407.026 527.661 406.913 527.718 424.932 513.933L431.597 508.849L434.252 511.447L436.907 514.046L443.402 514.442C448.599 514.724 450.519 514.611 452.948 513.877C454.643 513.368 456.337 512.973 456.676 512.973C456.959 512.973 458.088 514.442 459.105 516.249L460.912 519.583L469.78 519.922C484.918 520.599 487.743 520.486 489.832 519.187C491.132 518.396 492.713 518.057 494.973 518.057H498.192V521.616V525.119L508.246 527.831C513.725 529.3 521.407 531.051 525.248 531.729C532.196 532.915 532.309 532.915 539.087 531.898L545.921 530.825L549.649 527.266L553.377 523.707L560.268 522.633C564.053 522.068 567.216 521.503 567.385 521.39C567.498 521.277 567.781 518.283 568.007 514.78L568.402 508.453L572.526 506.193C576.536 503.99 576.818 503.708 578.852 499.64C580.716 495.968 581.394 495.177 583.766 493.877C586.251 492.522 586.703 491.9 588.341 488.171L590.149 483.991L598 479.98C609.24 474.274 608.28 475.234 606.134 471.505L604.383 468.342L606.755 465.122C608.28 463.031 609.523 460.433 610.314 457.608L611.556 453.371L609.636 448.004C608.563 445.066 607.602 442.58 607.489 442.467C607.376 442.354 606.416 443.993 605.286 446.139L603.253 450.037L595.458 449.247C588.85 448.569 587.437 448.286 585.912 447.1C584.444 445.97 583.484 445.744 580.546 445.744C576.931 445.744 576.875 445.687 571.735 441.902C566.821 438.287 566.538 438.004 566.708 436.196C566.821 434.445 567.047 434.162 569.362 433.428L571.904 432.581L569.701 430.829C568.459 429.869 566.877 428.569 566.086 427.892L564.674 426.762L567.555 424.502L570.436 422.299L570.492 413.768V405.237L564.787 403.655C561.624 402.751 558.743 401.678 558.348 401.282C557.953 400.944 557.444 399.644 557.218 398.458C556.766 395.802 556.202 395.125 553.434 393.712C551.344 392.639 551.287 392.526 551.287 389.532V386.424H555.863H560.381L566.538 382.018L572.752 377.668V371.34V365.069L568.007 361.567L563.262 358.064L562.923 353.657L562.528 349.307L559.647 348.968C557.614 348.686 556.089 348.121 554.733 346.991C552.982 345.579 552.7 344.957 552.53 342.697L552.361 340.042L554.959 338.912C556.936 338.008 558.066 336.935 560.043 334.054L562.528 330.325L560.438 327.444C552.474 316.314 552.474 316.371 550.666 316.371C549.48 316.371 549.028 316.145 549.198 315.636C549.367 315.297 550.158 313.377 551.005 311.456L552.53 307.953L547.446 302.304L542.306 296.711L537.788 299.818C533.608 302.756 532.987 302.982 529.372 303.264C525.813 303.49 525.192 303.716 522.819 305.806L520.165 308.066L522.142 310.1C524.796 312.812 524.796 314.45 522.085 317.049C520.503 318.574 518.978 319.365 516.324 320.043C512.935 320.89 512.709 320.89 511.974 319.93C509.771 317.162 509.828 316.992 512.935 315.693C515.702 314.507 515.985 314.168 517.736 310.495L519.6 306.484L516.775 304.789C514.347 303.321 514.008 302.869 514.008 301.174C514.008 300.044 514.686 298.123 515.702 296.485C517.397 293.773 517.397 293.716 516.493 291.909L515.533 290.101L521.577 284.451L527.564 278.802L527.903 272.022C528.129 268.294 528.524 264.791 528.75 264.283C529.089 263.605 530.332 263.209 532.648 262.927L535.98 262.531L543.323 250.837C548.463 242.589 550.892 238.069 551.513 235.866L552.361 232.646L550.553 233.041C545.074 234.171 545.074 234.171 545.074 232.363C545.074 231.007 545.695 230.103 548.068 228.126C554.055 223.041 555.241 222.646 555.241 225.64C555.241 226.714 555.467 227.731 555.693 227.9C555.919 228.013 558.63 228.013 561.681 227.844L567.216 227.505L569.984 224.058L572.808 220.612L572.413 216.658C572.243 214.454 571.339 210.782 570.492 208.409L568.854 204.116L570.549 198.805L572.187 193.495L571.226 186.885L570.266 180.218L573.034 162.027L575.802 143.779L581.055 138.356L586.308 132.932L587.437 126.831C588.059 123.441 588.567 120.277 588.567 119.769C588.567 119.148 586.703 118.3 581.62 116.775L574.672 114.685L568.459 115.814C565.07 116.436 561.85 117.057 561.342 117.17C560.72 117.283 559.534 116.323 558.009 114.402C555.806 111.634 555.467 111.408 552.53 111.069C550.214 110.786 549.254 110.899 548.972 111.408C547.559 113.837 546.882 114.233 543.493 114.628L539.991 115.023L537.731 112.368C535.585 109.826 535.415 109.713 533.099 109.995C527.225 110.73 526.717 110.956 526.886 112.651C527.112 114.176 527.056 114.176 524.344 114.007L521.633 113.837L515.25 105.419C509.207 97.3971 508.698 96.8886 505.366 95.3633C503.445 94.5159 501.581 93.7814 501.242 93.7814C500.903 93.7814 499.265 94.5159 497.571 95.4198C495.198 96.6627 493.278 97.1711 488.872 97.6231L483.224 98.2445L480.117 94.9113L477.01 91.5782L474.186 94.0639C471.588 96.4367 471.193 96.6062 468.199 96.6062H464.979L460.856 91.8606L456.733 87.0586L447.865 83.8384L439.053 80.6182L437.697 76.6071C436.624 73.3868 436.285 71.014 436.059 64.6866C435.72 54.6306 435.212 54.3481 431.258 61.8619C429.281 65.7036 427.7 67.9069 425.892 69.4322L423.294 71.6355L417.081 71.805C411.545 71.9744 410.698 71.8615 409.286 70.8445L407.761 69.7147L408.721 67.2854L409.681 64.8561L407.648 63.0483L405.614 61.2969L406.461 56.8339L407.309 52.3708L404.88 49.9415L402.451 47.5122L398.497 48.0207C396.351 48.3032 392.792 48.5856 390.646 48.6421L386.692 48.7551L386.014 46.7213C385.054 43.8965 380.196 37.6821 379.293 38.0776C378.897 38.1906 376.807 38.5295 374.661 38.699L370.707 39.0945L368.73 36.3828C367.205 34.2924 366.64 32.8236 366.301 30.2813C365.962 27.3436 365.623 26.6656 362.856 23.6714C361.161 21.8636 359.692 20.2817 359.523 20.2252C359.41 20.1122 357.49 21.6376 355.343 23.6149L351.333 27.1741L348.678 25.6487C345.458 23.7844 337.776 18.0784 337.776 17.5135C337.776 17.2875 338.059 15.7621 338.398 14.0673C339.019 11.0166 338.963 10.8471 336.477 5.4801C335.065 2.4859 333.71 0.00012207 333.427 0.00012207C333.201 0.00012207 329.417 1.92096 325.068 4.18073ZM335.122 6.94897L337.212 11.5815L336.364 14.6888C335.913 16.3836 335.517 17.9655 335.517 18.1349C335.517 18.8129 344.385 25.3663 348.17 27.4001L352.011 29.5469L355.626 25.9312L359.241 22.3721L361.726 25.1403C363.816 27.5131 364.268 28.4735 364.55 31.0723C364.833 33.332 365.51 35.0269 367.318 37.6821C369.577 41.1283 369.747 41.2413 371.667 41.0153C372.74 40.8458 374.943 40.5634 376.525 40.3374L379.462 39.9984L381.721 42.9926C382.964 44.6875 384.15 47.0038 384.376 48.1902C384.602 49.3201 384.997 50.3934 385.223 50.5629C385.506 50.7324 389.347 50.5629 393.753 50.2805L401.773 49.659L403.524 51.3539L405.219 53.0487L404.428 57.6813L403.694 62.3704L405.558 63.8957L407.422 65.4775L406.461 67.8503L405.501 70.2231L407.365 71.805C409.907 74.0082 410.98 74.2343 418.21 73.7823L424.48 73.3868L427.474 70.4491C429.168 68.8107 431.315 65.986 432.275 64.1217L434.082 60.732L434.421 67.2289C434.76 73.5563 436.285 79.9967 437.98 81.748C438.319 82.087 441.03 83.2734 443.967 84.3468C456.224 88.8099 455.32 88.3015 460.122 93.8379L464.527 98.9789L468.538 98.5835C472.096 98.2445 472.718 98.0186 474.638 96.1542L476.841 94.0639L479.552 97.1146L482.32 100.165L488.703 99.4874C493.73 98.9225 495.763 98.4705 498.192 97.2276L501.299 95.5893L504.518 97.0016C507.569 98.3575 508.19 98.9789 514.29 107.114C520.673 115.588 520.842 115.814 522.932 115.814C524.062 115.814 525.926 115.984 527.056 116.153L529.033 116.492L528.807 114.515L528.581 112.538L531.518 112.142C534.455 111.747 534.455 111.747 537.166 114.402L539.821 117.001L544.001 116.436C547.446 115.984 548.35 115.645 549.198 114.459C549.988 113.329 550.723 112.99 552.361 112.99C554.281 112.99 554.789 113.329 556.992 116.153C559.026 118.696 559.704 119.204 560.89 119.035C561.681 118.922 565.126 118.357 568.628 117.792L574.954 116.718L580.264 118.3C583.201 119.148 585.856 120.052 586.138 120.221C586.59 120.503 586.421 122.368 585.686 126.209C584.557 132.311 584.726 132.028 578.061 138.977L573.994 143.214L571.17 161.858L568.402 180.557L569.362 186.941L570.323 193.325L568.685 198.692L567.047 204.003L568.515 208.409C569.306 210.839 570.21 214.398 570.549 216.319L571.113 219.821L568.685 222.872L566.256 225.923H561.624L556.936 225.979V224.397C556.936 223.55 556.71 222.533 556.484 222.194C555.637 220.895 551.796 222.59 547.503 226.092L543.38 229.538V233.041V236.6L546.317 235.809C547.955 235.414 549.367 235.188 549.48 235.301C550.101 235.922 547.955 239.877 541.685 249.933L534.85 260.893L531.631 261.288C526.491 261.91 526.66 261.627 526.208 270.158L525.869 277.672L519.6 283.66L513.386 289.649L514.347 291.683C515.307 293.716 515.307 293.773 513.838 295.976C512.652 297.728 512.313 298.97 512.313 301.287C512.313 304.224 512.37 304.337 514.573 305.58C517.171 306.993 517.171 307.049 515.928 310.156C515.137 312.134 514.403 312.755 511.071 314.45L507.173 316.427L508.924 318.8C512.426 323.602 511.522 323.263 516.719 321.851C520.447 320.834 521.803 320.156 523.61 318.348C526.491 315.523 526.773 312.586 524.344 310.043L522.819 308.462L524.288 306.993C525.474 305.75 526.491 305.411 529.88 305.072C533.608 304.733 534.455 304.394 537.788 302.078C539.878 300.609 541.685 299.422 541.855 299.422C542.25 299.422 547.277 304.676 549.028 306.936L550.271 308.518L548.463 312.586C547.446 314.845 546.486 316.992 546.373 317.331C546.147 317.84 546.882 318.066 548.802 318.066C551.513 318.066 551.626 318.179 553.66 321.06C554.789 322.642 556.71 325.41 558.009 327.161L560.268 330.325L558.292 333.206C556.936 335.24 555.467 336.596 553.547 337.556L550.723 338.969V342.584C550.723 346.144 550.723 346.2 553.208 348.234C554.959 349.646 556.54 350.381 558.235 350.607L560.777 350.946L561.172 355.013L561.568 359.024L566.03 362.301L570.492 365.634V371.34L570.436 377.103L565.013 380.888L559.534 384.73H554.225H548.859L549.254 387.328C549.423 388.797 549.593 390.831 549.593 391.848C549.593 393.486 549.932 393.882 552.361 395.238C554.902 396.65 555.185 397.045 555.806 399.814C556.145 401.452 556.71 402.921 556.992 403.147C557.331 403.316 560.043 404.164 563.036 405.011L568.515 406.593L568.685 413.881L568.798 421.169L565.183 424.05L561.568 426.875L564.731 429.304L567.894 431.79L566.369 432.581C565.013 433.259 564.844 433.71 564.844 436.14V438.908L570.492 443.202L576.084 447.439H579.756C582.806 447.439 583.653 447.665 585.065 448.795C586.477 450.037 587.72 450.32 595.063 451.054C599.638 451.563 603.592 451.958 603.874 451.958C604.157 451.958 605.004 450.772 605.738 449.247L607.094 446.591L607.715 448.286C608.111 449.19 608.676 450.715 609.014 451.563C610.031 454.105 608.167 459.924 604.948 464.444L602.236 468.172L603.818 471.054L605.399 473.991L603.592 475.065C602.575 475.686 598.904 477.607 595.345 479.302L588.85 482.409L587.042 486.533C585.461 490.205 584.952 490.883 582.297 492.465C579.699 494.047 578.965 494.894 577.157 498.51C575.18 502.465 574.841 502.804 570.944 504.95L566.821 507.267L566.256 513.651L565.691 519.978L559.252 520.995L552.812 521.955L549.31 525.401L545.865 528.791L539.2 529.978L532.591 531.107L524.57 529.695C520.165 528.904 513.895 527.492 510.619 526.588C507.343 525.684 503.615 524.667 502.315 524.328L499.887 523.65V520.091V516.475L495.989 516.08C492.431 515.741 491.866 515.797 489.607 517.153L487.121 518.566L474.582 518.227L461.986 517.888L460.63 515.289C458.088 510.261 458.258 510.374 453.739 511.786C450.293 512.803 448.881 512.916 443.628 512.634L437.471 512.295L434.647 509.3L431.823 506.25L419.001 516.08C407.874 524.611 405.897 525.91 403.581 526.305C401.208 526.644 400.248 527.322 395.447 531.672C389.968 536.644 389.912 536.813 386.692 543.932L383.416 551.107L383.698 560.146C383.924 567.321 384.263 570.484 385.449 575.399C386.861 581.105 386.918 581.614 386.014 582.292C385.167 582.913 380.366 584.156 378.784 584.156C378.389 584.156 375.395 586.472 372.175 589.297L366.301 594.382L361.782 594.212C357.49 594.043 356.981 593.873 353.536 591.67L349.864 589.241L345.628 589.806C343.312 590.088 341.166 590.37 340.77 590.37C340.431 590.37 339.81 591.274 339.471 592.348L338.793 594.325H335.291H331.789L330.829 591.331C329.869 588.45 329.756 588.337 325.18 586.133L320.549 583.874L320.153 581.162C319.927 579.636 319.645 578.281 319.476 578.111C319.306 577.942 316.369 576.868 312.923 575.682L306.71 573.535L305.298 575.173C304.564 576.077 303.886 576.812 303.773 576.812C303.66 576.812 302.7 575.117 301.626 573.083L299.65 569.411L294.509 569.806L289.313 570.145L287.788 567.603C286.432 565.23 286.037 564.948 283.664 564.665C282.196 564.439 276.547 563.592 271.125 562.688C265.702 561.841 261.184 561.163 261.127 561.219C261.014 561.276 261.579 563.648 262.257 566.53L263.556 571.671L262.426 571.953C258.303 572.914 245.312 572.914 236.218 571.953L226.502 570.936V568.564C226.502 566.756 226.276 566.078 225.542 565.852C224.977 565.682 221.814 564.778 218.538 563.874L212.551 562.123L206.789 563.761L201.028 565.343L197.017 560.202C194.815 557.378 192.725 554.609 192.386 554.044C191.877 553.197 190.804 553.084 184.026 553.084H176.231L171.374 549.977C167.815 547.66 166.346 546.361 165.782 544.949C165.047 543.197 163.974 542.35 162.618 542.35C162.28 542.35 161.545 543.536 160.924 544.949C160.02 546.983 159.512 547.491 158.552 547.321C156.631 547.039 156.518 544.271 158.382 543.367C159.794 542.745 159.851 542.632 159.851 536.87C159.851 532.181 159.681 530.938 159.003 530.712C158.552 530.543 154.598 529.808 150.248 529.13L142.341 527.944L140.985 525.91L139.629 523.876L143.357 522.69C146.972 521.503 147.311 521.221 151.66 515.91L156.236 510.43L157.478 503.651C158.213 499.922 160.133 492.296 161.828 486.703C164.934 476.534 166.572 466.816 169.453 442.354C169.848 439.077 170.357 436.253 170.526 436.027C170.752 435.801 172.39 436.027 174.198 436.479C176.005 436.931 177.7 437.27 178.039 437.157C178.321 437.044 176.909 434.784 174.819 432.072L171.091 427.214L172.56 406.367C174.311 380.718 174.254 381.001 175.949 379.871C177.813 378.628 179.112 379.193 182.275 382.696C187.528 388.515 191.313 394.39 193.741 400.718C195.04 404.051 196.283 406.762 196.566 406.762C197.695 406.762 197.752 405.068 197.074 395.577L196.34 385.633L190.861 379.645C185.834 374.165 184.93 373.431 179.281 370.493C170.3 365.804 170.978 366.708 171.656 360.719L172.277 355.635L168.323 351.68C164.652 347.951 164.369 347.556 164.708 345.861C164.934 344.844 165.217 343.94 165.443 343.827C166.12 343.375 169.34 346.652 171.374 349.816C172.503 351.624 173.576 353.092 173.689 353.092C173.859 353.092 175.271 352.245 176.853 351.228L179.677 349.42L179.338 344.618L178.999 339.816L175.497 336.257L172.051 332.754H167.815C163.861 332.754 163.522 332.867 161.206 334.788L158.721 336.765L157.139 335.636C154.202 333.545 154.146 333.263 155.953 330.325C156.857 328.856 157.704 327.67 157.874 327.67C158.043 327.67 159.455 328.291 160.98 329.082C163.353 330.269 164.539 330.495 169.114 330.495H174.48L172.673 327.331C170.978 324.45 170.47 323.998 165.443 321.455C162.449 319.93 157.817 317.84 155.163 316.766C151.999 315.467 149.006 313.716 146.69 311.795L143.075 308.801L142.679 303.716C142.454 300.891 142.058 298.462 141.776 298.293C141.437 298.123 139.121 295.863 136.466 293.321L131.778 288.688L132.286 285.807C132.569 284.112 133.811 281.288 135.336 278.802L137.878 274.678L136.127 271.57C134.433 268.576 134.207 268.407 131.383 267.785L128.389 267.164L127.203 263.04L126.017 258.972L121.215 259.198L116.471 259.424L115.228 256.995C114.042 254.679 113.985 254.34 114.663 249.481C115.059 246.656 115.454 244.058 115.623 243.719C115.736 243.38 114.72 242.193 113.364 241.063L110.822 239.03L105.343 240.046L99.9208 241.063L98.3957 239.199C97.0401 237.504 96.5317 237.278 94.2159 237.278C92.013 237.278 91.3916 237.561 90.149 239.03C88.8499 240.555 88.4545 240.668 87.0988 240.272C85.6867 239.764 85.5738 239.538 85.4043 235.866C85.2349 232.363 85.0654 231.855 82.9755 229.369L80.7161 226.657L78.3438 227.279C77.0446 227.561 74.3899 228.973 72.4694 230.329C69.3063 232.533 68.7414 232.759 67.1034 232.307C65.7477 231.968 65.1829 231.459 65.0699 230.555C64.7875 228.804 65.7477 228.239 69.3627 228.239C70.9443 228.239 72.2999 228.07 72.2999 227.787C72.2999 227.561 70.6054 225.697 68.5155 223.663C64.7875 220.047 64.5051 219.878 59.0261 218.352C54.9027 217.223 52.9258 216.375 51.6831 215.189C50.1581 213.776 49.4802 213.55 46.8255 213.55C43.8318 213.55 43.6624 213.663 41.5724 216.093C39.4825 218.635 39.3695 218.691 36.5453 218.522C33.6646 218.352 33.6646 218.352 31.6312 214.963C30.0496 212.251 29.5977 210.839 29.3718 207.675L29.0894 203.777L23.2715 202.082C19.9389 201.065 17.5101 200.105 17.5101 199.653C17.5101 199.257 18.1879 198.184 18.9787 197.223C20.4473 195.472 20.5038 195.472 25.8698 195.472C29.7672 195.529 31.6877 195.755 32.422 196.319C33.0433 196.771 34.7378 197.167 36.2064 197.167C38.6917 197.167 38.8612 197.054 39.2001 195.416C39.3695 194.455 39.539 192.817 39.539 191.8C39.539 190.105 39.3695 189.936 36.8842 189.314C35.3027 188.862 32.8738 188.749 30.7274 188.975C25.9263 189.54 24.966 189.145 25.3049 186.941L25.5874 185.133L32.2525 185.529L38.9741 185.924V183.326V180.727L35.2462 179.089L31.5182 177.394L29.2024 178.75C27.5078 179.766 25.8133 180.162 23.215 180.275L19.6 180.444L17.962 177.111C16.4369 174.173 16.3239 173.609 16.8888 171.801C18.1879 167.394 19.2046 166.49 24.9095 164.569C31.2358 162.423 39.0306 160.671 46.0347 159.88C50.8924 159.315 51.3442 159.315 54.9592 160.728C59.7604 162.536 60.3252 162.479 60.5512 160.558L60.7206 159.033L67.0469 158.863L73.3731 158.694L73.9945 156.604C74.2769 155.417 74.7288 153.666 74.8982 152.649L75.2936 150.841H79.304C81.5069 150.841 85.7997 151.124 88.8499 151.519L94.3853 152.197L97.9438 157.056C99.9208 159.711 102.463 163.496 103.592 165.53C104.722 167.564 106.586 170.332 107.772 171.688L109.975 174.173L113.759 173.439C117.487 172.761 117.544 172.705 119.803 169.371C121.102 167.507 122.402 166.151 122.797 166.264C123.418 166.49 131.326 169.032 133.868 169.767C134.433 169.936 135.111 169.371 135.788 168.129C136.749 166.321 137.088 166.151 141.776 165.304C144.487 164.795 146.972 164.4 147.255 164.4C147.594 164.4 148.271 165.247 148.836 166.321C149.74 168.016 150.192 168.242 152.734 168.581C159.173 169.315 159.964 169.145 162.788 166.208L165.443 163.552L163.692 160.728L161.884 157.903L161.206 144.288L160.529 130.673L155.614 123.272C150.192 115.136 148.949 111.634 148.215 102.538C147.989 100.052 147.481 97.2841 147.029 96.4367C146.577 95.5328 146.351 94.6854 146.52 94.5159C146.69 94.3464 148.554 94.4029 150.7 94.6288C154.315 94.9678 154.598 95.1373 155.163 96.6627C155.784 98.2445 155.897 98.301 159.907 98.301C163.296 98.301 164.257 98.075 165.273 97.1146C166.459 95.9847 166.911 95.9283 170.413 96.3802L174.254 96.8886L174.593 99.0355C174.876 100.73 174.706 101.295 173.915 101.691C173.181 102.143 172.899 103.103 172.729 105.984L172.56 109.713L175.271 111.973C177.756 114.12 177.926 114.402 177.926 117.001V119.769H180.468C182.614 119.769 183.009 119.6 183.009 118.696C183.009 118.074 183.235 117.453 183.461 117.283C184.421 116.718 195.379 118.187 204.021 120.108C208.936 121.125 213.003 122.029 213.115 122.029C213.228 122.029 214.302 122.763 215.488 123.724C217.465 125.306 217.973 125.419 222.153 125.419H226.672L230.739 121.803C233.45 119.317 235.992 117.622 238.533 116.605C242.713 114.91 242.657 114.515 237.969 113.498C236.048 113.046 234.467 112.255 233.45 111.182L231.868 109.543L234.241 107.34C235.992 105.645 236.726 104.402 237.234 102.143C238.138 98.414 238.138 98.3575 243.448 94.6854C250.226 89.9398 256.947 86.8326 264.912 84.7988C271.464 83.1039 272.424 82.652 278.242 78.8103C284.116 74.9122 284.851 74.2908 288.748 68.8107C291.064 65.5906 293.097 62.6528 293.323 62.3138C293.606 61.9184 294.566 58.2462 295.583 54.1221L297.447 46.6083L296.769 37.2867L296.091 27.965L297.729 22.598L299.367 17.231L303.378 14.8018C306.315 13.0504 308.744 12.09 312.697 11.2426C316.877 10.2822 319.476 9.26526 325.18 6.15802C329.191 4.06775 332.523 2.31641 332.693 2.31641C332.862 2.31641 333.936 4.40674 335.122 6.94897Z" fill="black"/>
<path d="M134.546 90.1658C133.925 90.8437 132.625 98.8095 133.021 99.3179C133.134 99.4309 134.489 99.3179 136.071 99.0919L139.008 98.6965L138.613 94.4029C138.387 92.0301 137.935 89.9398 137.596 89.7138C136.636 89.0359 135.337 89.2053 134.546 90.1658ZM136.692 94.4029C136.692 96.6062 136.523 97.1711 135.789 97.1711C134.998 97.1711 134.941 96.7757 135.224 95.0243C135.393 93.8944 135.563 92.482 135.563 91.9171C135.563 91.3521 135.845 91.0697 136.127 91.2392C136.466 91.4086 136.692 92.821 136.692 94.4029Z" fill="black"/>
<path d="M112.404 103.386C112.404 103.668 112.008 103.95 111.5 103.95C110.822 103.95 110.653 104.685 110.766 108.188C110.879 112.312 110.935 112.481 112.686 113.555C113.985 114.345 115.51 114.684 117.883 114.684C121.611 114.684 120.989 115.193 125.056 108.979L125.96 107.51L120.763 105.532C114.381 103.103 112.404 102.595 112.404 103.386ZM116.527 105.928C117.883 106.38 119.973 107.171 121.102 107.623L123.136 108.47L121.667 110.73C120.368 112.707 119.916 112.99 117.996 112.99C116.809 112.99 115.171 112.707 114.381 112.312C113.082 111.747 112.969 111.351 112.969 108.357C112.969 106.549 113.194 105.08 113.533 105.08C113.816 105.08 115.171 105.476 116.527 105.928Z" fill="black"/>
<path d="M132.06 119.769C129.857 120.899 128.897 121.746 129.123 122.255C129.293 122.707 129.18 123.215 128.897 123.385C128.389 123.667 128.897 127.509 129.462 127.904C129.518 127.961 131.1 129.26 132.908 130.729L136.127 133.441L141.154 132.48L146.125 131.52L144.713 127.961C143.527 124.967 142.736 123.893 139.46 121.238C137.37 119.487 135.562 118.074 135.449 118.074C135.336 118.131 133.811 118.865 132.06 119.769ZM138.612 122.933C141.55 125.305 143.978 129.034 143.131 129.882C142.962 130.051 141.493 130.503 139.912 130.898C136.636 131.633 136.41 131.52 132.625 128.13C131.27 126.944 130.479 125.701 130.366 124.571C130.196 123.159 130.535 122.763 132.456 121.633C133.698 120.955 134.884 120.334 135.11 120.334C135.28 120.334 136.861 121.52 138.612 122.933Z" fill="black"/>
<path d="M110.766 119.599C109.467 120.503 109.184 122.537 110.257 123.611C112.178 125.531 116.019 122.82 114.72 120.447C113.929 118.978 112.178 118.583 110.766 119.599ZM112.969 121.803C112.969 122.311 112.686 122.594 112.291 122.481C111.274 122.142 111.105 120.899 112.065 120.899C112.573 120.899 112.969 121.294 112.969 121.803Z" fill="black"/>
<path d="M1.1296 166.095C-1.18626 168.411 0.564756 172.309 3.84085 172.309C5.87429 172.309 7.34288 170.727 7.34288 168.524C7.34288 165.304 3.44546 163.778 1.1296 166.095ZM5.30944 167.903C5.76132 168.693 5.70483 169.089 4.97054 169.823C3.27601 171.518 0.734209 169.315 2.25929 167.451C3.16304 166.434 4.46218 166.603 5.30944 167.903Z" fill="black"/>
<path d="M76.8188 240.046C75.7456 240.329 75.4067 240.781 75.4067 242.08C75.4067 243.436 75.8021 244.001 77.8356 245.074L80.2079 246.43L82.1284 244.735L84.0488 243.041L82.2413 241.289C80.4338 239.538 79.4736 239.312 76.8188 240.046ZM81.3376 242.871C81.3376 243.888 79.5301 244.001 78.118 243.097L76.6494 242.137L78.005 241.741C79.4171 241.402 81.3376 242.024 81.3376 242.871Z" fill="black"/>
<path d="M91.2788 246.091C91.0529 246.713 91.9002 248.125 93.8206 250.328C96.7013 253.718 97.4921 254.001 100.429 253.153C101.728 252.814 101.672 252.701 98.8477 248.973C96.193 245.47 95.8541 245.187 93.8206 245.187C92.352 245.187 91.5048 245.47 91.2788 246.091ZM96.5319 249.086C98.9607 252.136 98.7348 252.588 96.0235 249.989C94.7809 248.803 93.7642 247.56 93.7642 247.334C93.7642 246.317 94.8938 246.995 96.5319 249.086Z" fill="black"/>
<path d="M82.1846 247.108C80.942 247.504 79.9253 248.125 79.9817 248.464C80.0382 248.859 80.0947 250.385 80.1512 251.967C80.2077 255.243 79.9817 255.074 87.7201 255.639L92.7472 255.978L91.1656 253.097C89.7535 250.498 85.6867 246.204 84.7829 246.374C84.6135 246.43 83.4273 246.769 82.1846 247.108ZM86.4774 249.876C87.3247 250.554 88.2849 251.684 88.6238 252.362C89.2452 253.605 89.1887 253.662 86.4774 253.662C82.5235 253.662 81.9022 253.323 81.9022 251.119C81.9022 249.311 82.4106 248.803 84.444 248.69C84.7829 248.634 85.6867 249.198 86.4774 249.876Z" fill="black"/>
<path d="M124.435 271.401C122.345 271.853 121.95 272.192 121.667 273.717C121.498 274.678 121.554 276.316 121.837 277.389C122.288 279.141 122.627 279.367 125.96 280.271C127.937 280.836 129.688 281.175 129.857 281.062C130.027 280.892 130.253 279.31 130.366 277.502C130.592 274.452 130.479 274.169 128.671 272.587C126.92 270.949 126.638 270.892 124.435 271.401ZM127.767 273.83C128.784 274.734 129.067 276.542 128.445 278.124C127.993 279.367 123.701 278.18 123.701 276.824C123.701 276.259 123.531 275.412 123.362 274.904C123.136 274.282 123.475 273.83 124.322 273.491C126.242 272.7 126.581 272.757 127.767 273.83Z" fill="black"/>
<path d="M118.504 291.344C115.793 291.626 115.285 292.361 115.906 295.298L116.414 297.728H120.933C123.362 297.728 125.395 297.558 125.395 297.389C125.395 296.541 121.667 291.005 121.159 291.061C120.877 291.118 119.634 291.231 118.504 291.344ZM121.441 294.394C121.837 295.016 121.95 295.694 121.78 295.863C121.159 296.485 117.77 295.129 117.6 294.168C117.318 292.7 120.651 292.869 121.441 294.394Z" fill="black"/>
<path d="M134.263 304.959C132.456 306.936 133.472 310.721 135.732 310.721C137.483 310.721 138.387 309.704 138.387 307.727C138.387 304.281 136.184 302.812 134.263 304.959ZM136.692 307.332C136.692 308.574 135.788 309.309 135.28 308.462C134.772 307.671 135.506 305.524 136.184 305.919C136.466 306.145 136.692 306.767 136.692 307.332Z" fill="black"/>
<path d="M701.31 513.707C701.027 516.532 701.197 518.001 702.101 520.656C704.247 526.757 703.004 529.074 696.735 530.768L692.329 531.955L691.143 535.288L689.956 538.678L684.986 540.316C680.185 541.954 679.902 542.18 675.835 546.587C671.712 551.163 671.712 551.22 670.017 557.49L668.379 563.761L670.017 565.287C671.994 567.208 671.994 568.168 670.13 569.015C668.775 569.637 668.718 569.919 669.001 572.01C669.848 577.094 670.413 578.507 672.051 578.845C676.57 579.862 677.925 580.314 678.151 581.049C678.321 581.444 677.473 583.309 676.231 585.116C674.028 588.224 673.971 588.563 674.254 591.726L674.593 595.003L678.603 594.608C680.806 594.382 682.839 594.212 683.122 594.156C683.404 594.099 683.574 595.568 683.517 597.432C683.404 600.652 683.235 600.935 681.088 602.856L678.716 604.833L683.574 607.771L688.375 610.652L687.754 613.533C687.189 616.358 687.189 616.414 689.109 618.335C690.917 620.087 691.651 620.313 697.864 621.442C704.529 622.572 704.699 622.629 706.676 624.889C708.144 626.527 709.048 627.148 709.782 626.922C710.404 626.753 711.929 626.301 713.171 626.019C715.487 625.397 715.544 625.341 716.165 621.838C716.561 619.917 717.747 615.624 718.82 612.29C721.249 604.551 721.418 599.749 719.328 596.302C718.142 594.382 717.916 593.365 717.916 589.128C717.916 584.551 718.029 583.93 719.95 580.54C721.701 577.32 722.04 576.077 722.491 571.106C723 565.513 723 565.174 721.305 560.202C720.401 557.377 719.272 553.14 718.82 550.824C717.86 545.74 715.939 541.389 713.002 537.491L710.856 534.61L711.138 526.757C711.364 520.091 711.251 518.34 710.347 515.119C709.218 511.391 709.218 511.334 706.958 510.995C705.659 510.826 703.965 510.543 703.174 510.374C701.762 510.091 701.705 510.204 701.31 513.707ZM706.45 512.747C707.354 512.973 707.975 513.933 708.653 515.967C709.444 518.396 709.556 520.204 709.274 526.983L708.879 535.119L711.42 538.395C714.358 542.237 715.826 545.683 717.295 552.406C717.916 555.118 719.046 559.129 719.78 561.332C721.079 565.061 721.136 565.682 720.627 570.823C720.176 575.456 719.78 576.925 718.142 579.862C716.335 583.196 716.222 583.704 716.222 588.902C716.222 593.591 716.391 594.72 717.634 597.15C718.82 599.523 718.989 600.426 718.707 603.477C718.537 605.454 717.634 609.466 716.786 612.403C715.883 615.341 714.922 619.183 714.527 620.934C713.906 624.098 713.906 624.154 711.533 624.493C709.387 624.832 709.105 624.776 707.467 622.911C705.829 620.991 705.49 620.821 698.711 619.691C691.086 618.392 688.77 617.205 689.335 614.946C689.448 614.324 689.787 612.912 689.956 611.725L690.352 609.692L686.341 607.319C684.139 606.019 682.331 604.777 682.331 604.607C682.331 604.438 682.952 603.647 683.687 602.856C684.816 601.613 685.155 600.539 685.494 596.698L685.89 591.952L681.992 592.348C679.846 592.574 677.643 592.856 677.134 592.969C676.287 593.252 676.118 592.856 676.118 590.822C676.118 588.789 676.57 587.715 678.66 584.834L681.201 581.331L679.394 579.636C678.264 578.676 676.626 577.829 675.214 577.659C671.994 577.151 671.712 576.868 671.26 573.591C670.978 571.049 671.034 570.654 672.051 570.089C672.672 569.75 673.35 568.846 673.519 567.998C673.858 566.756 673.576 566.134 672.22 564.722L670.526 562.97L671.825 557.716C673.35 551.897 673.294 551.897 678.038 547.039C681.032 543.875 681.936 543.31 686.003 542.011C688.488 541.163 690.804 540.26 691.143 539.864C691.538 539.525 692.216 537.943 692.724 536.361L693.684 533.48L697.469 532.52C699.559 531.955 701.536 531.446 701.931 531.333C702.326 531.22 703.287 529.808 704.077 528.226L705.546 525.288L704.416 521.842C703.739 519.978 703.23 517.04 703.23 515.402C703.23 512.238 703.513 511.956 706.45 512.747Z" fill="black"/>
<path fill-rule="evenodd" clip-rule="evenodd" d="M287.724 196.735C286.367 196.735 285.265 195.633 285.265 194.276C285.265 192.918 286.367 191.816 287.724 191.816C289.082 191.816 290.184 192.918 290.184 194.276C290.184 195.633 289.082 196.735 287.724 196.735ZM287.724 190.587C285.687 190.587 284.036 192.238 284.036 194.276C284.036 196.313 285.687 197.964 287.724 197.964C289.762 197.964 291.413 196.313 291.413 194.276C291.413 192.238 289.762 190.587 287.724 190.587ZM279.117 193.786C279.117 189.462 283.139 185.668 287.724 185.668C292.31 185.668 296.332 189.462 296.332 193.786C296.332 198.034 293.18 203.061 287.724 211.648C282.205 202.952 279.117 198.034 279.117 193.786ZM287.724 184.439C282.563 184.439 277.888 188.623 277.888 193.786C277.888 198.948 282.153 205.111 287.724 213.949C293.296 205.111 297.561 198.948 297.561 193.786C297.561 188.623 292.887 184.439 287.724 184.439" fill="#FF0000"/>
<path fill-rule="evenodd" clip-rule="evenodd" d="M346.745 77.4643C345.387 77.4643 344.286 76.3625 344.286 75.0051C344.286 73.6476 345.387 72.5459 346.745 72.5459C348.102 72.5459 349.204 73.6476 349.204 75.0051C349.204 76.3625 348.102 77.4643 346.745 77.4643ZM346.745 71.3163C344.708 71.3163 343.056 72.9676 343.056 75.0051C343.056 77.0425 344.708 78.6938 346.745 78.6938C348.782 78.6938 350.434 77.0425 350.434 75.0051C350.434 72.9676 348.782 71.3163 346.745 71.3163ZM338.138 74.5157C338.138 70.1912 342.16 66.3979 346.745 66.3979C351.33 66.3979 355.352 70.1912 355.352 74.5157C355.352 78.7639 352.201 83.7905 346.745 92.378C341.225 83.6811 338.138 78.7639 338.138 74.5157ZM346.745 65.1683C341.583 65.1683 336.908 69.3526 336.908 74.5157C336.908 79.6775 341.174 85.8402 346.745 94.6785C352.316 85.8402 356.582 79.6775 356.582 74.5157C356.582 69.3526 351.908 65.1683 346.745 65.1683" fill="#FF0000"/>
<path fill-rule="evenodd" clip-rule="evenodd" d="M263.133 316.005C261.775 316.005 260.673 314.903 260.673 313.546C260.673 312.188 261.775 311.087 263.133 311.087C264.49 311.087 265.592 312.188 265.592 313.546C265.592 314.903 264.49 316.005 263.133 316.005ZM263.133 309.857C261.095 309.857 259.444 311.508 259.444 313.546C259.444 315.583 261.095 317.235 263.133 317.235C265.17 317.235 266.821 315.583 266.821 313.546C266.821 311.508 265.17 309.857 263.133 309.857ZM254.525 313.057C254.525 308.732 258.547 304.939 263.133 304.939C267.718 304.939 271.74 308.732 271.74 313.057C271.74 317.305 268.588 322.331 263.133 330.919C257.613 322.222 254.525 317.305 254.525 313.057ZM263.133 303.709C257.971 303.709 253.296 307.893 253.296 313.057C253.296 318.218 257.561 324.381 263.133 333.219C268.704 324.381 272.969 318.218 272.969 313.057C272.969 307.893 268.296 303.709 263.133 303.709" fill="#FF0000"/>
<path fill-rule="evenodd" clip-rule="evenodd" d="M463.556 431.587C462.199 431.587 461.097 430.485 461.097 429.128C461.097 427.77 462.199 426.668 463.556 426.668C464.914 426.668 466.015 427.77 466.015 429.128C466.015 430.485 464.914 431.587 463.556 431.587ZM463.556 425.439C461.519 425.439 459.867 427.09 459.867 429.128C459.867 431.165 461.519 432.816 463.556 432.816C465.594 432.816 467.245 431.165 467.245 429.128C467.245 427.09 465.594 425.439 463.556 425.439ZM454.949 428.638C454.949 424.314 458.971 420.52 463.556 420.52C468.141 420.52 472.163 424.314 472.163 428.638C472.163 432.886 469.012 437.913 463.556 446.5C458.037 437.804 454.949 432.886 454.949 428.638ZM463.556 419.291C458.394 419.291 453.719 423.475 453.719 428.638C453.719 433.8 457.985 439.963 463.556 448.801C469.127 439.963 473.393 433.8 473.393 428.638C473.393 423.475 468.719 419.291 463.556 419.291" fill="#FF0000"/>
<path fill-rule="evenodd" clip-rule="evenodd" d="M695.949 565.612C694.592 565.612 693.49 564.511 693.49 563.153C693.49 561.796 694.592 560.694 695.949 560.694C697.307 560.694 698.408 561.796 698.408 563.153C698.408 564.511 697.307 565.612 695.949 565.612ZM695.949 559.464C693.912 559.464 692.26 561.116 692.26 563.153C692.26 565.191 693.912 566.842 695.949 566.842C697.986 566.842 699.638 565.191 699.638 563.153C699.638 561.116 697.986 559.464 695.949 559.464ZM687.342 562.664C687.342 558.339 691.364 554.546 695.949 554.546C700.534 554.546 704.556 558.339 704.556 562.664C704.556 566.912 701.405 571.939 695.949 580.526C690.429 571.829 687.342 566.912 687.342 562.664ZM695.949 553.316C690.787 553.316 686.112 557.501 686.112 562.664C686.112 567.826 690.378 573.988 695.949 582.827C701.52 573.988 705.786 567.826 705.786 562.664C705.786 557.501 701.112 553.316 695.949 553.316" fill="#FF0000"/>
<path fill-rule="evenodd" clip-rule="evenodd" d="M292.643 472.163C291.285 472.163 290.184 471.062 290.184 469.704C290.184 468.347 291.285 467.245 292.643 467.245C294 467.245 295.102 468.347 295.102 469.704C295.102 471.062 294 472.163 292.643 472.163ZM292.643 466.015C290.605 466.015 288.954 467.667 288.954 469.704C288.954 471.741 290.605 473.393 292.643 473.393C294.68 473.393 296.332 471.741 296.332 469.704C296.332 467.667 294.68 466.015 292.643 466.015ZM284.036 469.215C284.036 464.89 288.058 461.097 292.643 461.097C297.228 461.097 301.25 464.89 301.25 469.215C301.25 473.463 298.099 478.489 292.643 487.077C287.123 478.38 284.036 473.463 284.036 469.215ZM292.643 459.867C287.481 459.867 282.806 464.052 282.806 469.215C282.806 474.376 287.072 480.539 292.643 489.378C298.214 480.539 302.48 474.376 302.48 469.215C302.48 464.052 297.806 459.867 292.643 459.867" fill="#FF0000"/>
<path fill-rule="evenodd" clip-rule="evenodd" d="M272.969 446.342C271.612 446.342 270.51 445.24 270.51 443.883C270.51 442.525 271.612 441.423 272.969 441.423C274.327 441.423 275.428 442.525 275.428 443.883C275.428 445.24 274.327 446.342 272.969 446.342ZM272.969 440.194C270.932 440.194 269.281 441.845 269.281 443.883C269.281 445.92 270.932 447.571 272.969 447.571C275.007 447.571 276.658 445.92 276.658 443.883C276.658 441.845 275.007 440.194 272.969 440.194ZM264.362 443.393C264.362 439.069 268.384 435.275 272.969 435.275C277.554 435.275 281.576 439.069 281.576 443.393C281.576 447.641 278.425 452.668 272.969 461.256C267.45 452.559 264.362 447.641 264.362 443.393ZM272.969 434.046C267.807 434.046 263.133 438.23 263.133 443.393C263.133 448.555 267.398 454.718 272.969 463.556C278.541 454.718 282.806 448.555 282.806 443.393C282.806 438.23 278.132 434.046 272.969 434.046" fill="#FF0000"/>
<path fill-rule="evenodd" clip-rule="evenodd" d="M179.52 196.735C178.163 196.735 177.061 195.633 177.061 194.276C177.061 192.918 178.163 191.816 179.52 191.816C180.878 191.816 181.98 192.918 181.98 194.276C181.98 195.633 180.878 196.735 179.52 196.735ZM179.52 190.587C177.483 190.587 175.832 192.238 175.832 194.276C175.832 196.313 177.483 197.964 179.52 197.964C181.558 197.964 183.209 196.313 183.209 194.276C183.209 192.238 181.558 190.587 179.52 190.587ZM170.913 193.786C170.913 189.462 174.935 185.668 179.52 185.668C184.105 185.668 188.127 189.462 188.127 193.786C188.127 198.034 184.976 203.061 179.52 211.648C174.001 202.952 170.913 198.034 170.913 193.786ZM179.52 184.439C174.359 184.439 169.684 188.623 169.684 193.786C169.684 198.948 173.949 205.111 179.52 213.949C185.092 205.111 189.357 198.948 189.357 193.786C189.357 188.623 184.683 184.439 179.52 184.439" fill="#FF0000"/>
<path fill-rule="evenodd" clip-rule="evenodd" d="M392.24 316.005C390.882 316.005 389.781 314.903 389.781 313.546C389.781 312.188 390.882 311.087 392.24 311.087C393.597 311.087 394.699 312.188 394.699 313.546C394.699 314.903 393.597 316.005 392.24 316.005ZM392.24 309.857C390.202 309.857 388.551 311.508 388.551 313.546C388.551 315.583 390.202 317.235 392.24 317.235C394.277 317.235 395.929 315.583 395.929 313.546C395.929 311.508 394.277 309.857 392.24 309.857ZM383.633 313.057C383.633 308.732 387.655 304.939 392.24 304.939C396.825 304.939 400.847 308.732 400.847 313.057C400.847 317.305 397.696 322.331 392.24 330.919C386.72 322.222 383.633 317.305 383.633 313.057ZM392.24 303.709C387.078 303.709 382.403 307.893 382.403 313.057C382.403 318.218 386.669 324.381 392.24 333.219C397.811 324.381 402.077 318.218 402.077 313.057C402.077 307.893 397.403 303.709 392.24 303.709" fill="#FF0000"/>
<path fill-rule="evenodd" clip-rule="evenodd" d="M463.556 162.306C462.199 162.306 461.097 161.204 461.097 159.847C461.097 158.489 462.199 157.388 463.556 157.388C464.914 157.388 466.015 158.489 466.015 159.847C466.015 161.204 464.914 162.306 463.556 162.306ZM463.556 156.158C461.519 156.158 459.867 157.809 459.867 159.847C459.867 161.884 461.519 163.536 463.556 163.536C465.594 163.536 467.245 161.884 467.245 159.847C467.245 157.809 465.594 156.158 463.556 156.158ZM454.949 159.358C454.949 155.033 458.971 151.24 463.556 151.24C468.141 151.24 472.163 155.033 472.163 159.358C472.163 163.606 469.012 168.632 463.556 177.22C458.037 168.523 454.949 163.606 454.949 159.358ZM463.556 150.01C458.394 150.01 453.719 154.194 453.719 159.358C453.719 164.519 457.985 170.682 463.556 179.52C469.127 170.682 473.393 164.519 473.393 159.358C473.393 154.194 468.719 150.01 463.556 150.01" fill="#FF0000"/>
<path fill-rule="evenodd" clip-rule="evenodd" d="M272.969 479.541C271.612 479.541 270.51 478.439 270.51 477.082C270.51 475.724 271.612 474.622 272.969 474.622C274.327 474.622 275.428 475.724 275.428 477.082C275.428 478.439 274.327 479.541 272.969 479.541ZM272.969 473.393C270.932 473.393 269.281 475.044 269.281 477.082C269.281 479.119 270.932 480.77 272.969 480.77C275.007 480.77 276.658 479.119 276.658 477.082C276.658 475.044 275.007 473.393 272.969 473.393ZM264.362 476.592C264.362 472.268 268.384 468.474 272.969 468.474C277.554 468.474 281.576 472.268 281.576 476.592C281.576 480.84 278.425 485.867 272.969 494.455C267.45 485.758 264.362 480.84 264.362 476.592ZM272.969 467.245C267.807 467.245 263.133 471.429 263.133 476.592C263.133 481.754 267.398 487.917 272.969 496.755C278.541 487.917 282.806 481.754 282.806 476.592C282.806 471.429 278.132 467.245 272.969 467.245" fill="#FF0000"/>
</svg>
